<?xml version="1.0" encoding="utf-8"?>
<!-- Generator: Adobe Illustrator 24.3.0, SVG Export Plug-In . SVG Version: 6.00 Build 0)  -->
<svg version="1.1" xmlns="http://www.w3.org/2000/svg" xmlns:xlink="http://www.w3.org/1999/xlink" x="0px" y="0px"
	 viewBox="0 0 1000 354" style="enable-background:new 0 0 1000 354;" xml:space="preserve">
<style type="text/css">
	.st0{fill:#374151;}
	.st1{display:none;}
	.st2{display:inline;}
	.st3{display:inline;clip-path:url(#SVGID_2_);fill:#374151;}
	.st4{fill:#FFFFFF;}
	.st5{fill:#EA6223;}
	.st6{font-family:'MyriadPro-Regular';}
	.st7{font-size:77px;}
	.st8{font-family:'ChristianHeedlay';}
	.st9{font-family:'Lato-Light';}
	.st10{font-size:130px;}
	.st11{display:inline;fill:none;stroke:#374151;stroke-width:11;stroke-miterlimit:10;}
</style>
<g id="Layer_1">
	<path class="st0" d="M857.59,287.07c0-0.53-0.12-0.98-0.38-1.36c-0.25-0.37-0.57-0.68-0.96-0.91c-0.39-0.24-0.83-0.41-1.32-0.52
		c-0.49-0.11-0.95-0.16-1.4-0.16c-0.51,0-0.98,0.05-1.4,0.17c-0.43,0.12-0.79,0.28-1.09,0.49c-0.31,0.22-0.55,0.48-0.72,0.79
		c-0.17,0.31-0.26,0.66-0.26,1.04c0,0.66,0.2,1.18,0.6,1.57c0.4,0.39,1.07,0.75,2.01,1.07l3.79,1.33c1.62,0.54,2.8,1.29,3.55,2.23
		c0.75,0.93,1.12,2.06,1.12,3.37c0,0.87-0.17,1.68-0.52,2.41c-0.35,0.73-0.84,1.35-1.48,1.86c-0.65,0.51-1.42,0.91-2.31,1.2
		c-0.9,0.28-1.9,0.43-3.01,0.43c-1.54,0-2.78-0.25-3.75-0.75c-0.96-0.49-1.7-1.14-2.22-1.95h-1.98v-3.27h3.93
		c0,0.54,0.12,1.01,0.35,1.4c0.23,0.38,0.55,0.69,0.93,0.93c0.38,0.25,0.82,0.43,1.31,0.54c0.48,0.11,0.98,0.17,1.5,0.17
		c0.49,0,0.97-0.06,1.43-0.18c0.46-0.12,0.86-0.3,1.2-0.54c0.35-0.23,0.62-0.51,0.83-0.84c0.2-0.33,0.3-0.71,0.3-1.13
		c0-0.64-0.2-1.17-0.62-1.61c-0.41-0.45-1.11-0.85-2.1-1.2l-3.77-1.41c-1.54-0.55-2.68-1.24-3.41-2.08
		c-0.74-0.84-1.12-1.89-1.11-3.16c0-0.84,0.16-1.61,0.47-2.32c0.3-0.71,0.75-1.32,1.35-1.84c0.59-0.52,1.3-0.92,2.16-1.21
		c0.85-0.29,1.83-0.44,2.91-0.44c1.41,0,2.59,0.2,3.54,0.59c0.95,0.39,1.8,1.06,2.56,2.01h1.85v3.27H857.59z M838.7,287.07
		c0-0.53-0.12-0.98-0.37-1.36c-0.25-0.37-0.57-0.68-0.97-0.91c-0.39-0.24-0.83-0.41-1.31-0.52c-0.48-0.11-0.95-0.16-1.41-0.16
		c-0.5,0-0.97,0.05-1.4,0.17c-0.43,0.12-0.79,0.28-1.1,0.49c-0.3,0.22-0.54,0.48-0.71,0.79c-0.17,0.31-0.26,0.66-0.26,1.04
		c0,0.66,0.2,1.18,0.6,1.57c0.4,0.39,1.07,0.75,2,1.07l3.79,1.33c1.63,0.54,2.82,1.29,3.56,2.23c0.75,0.93,1.12,2.06,1.12,3.37
		c0,0.87-0.17,1.68-0.52,2.41c-0.35,0.73-0.84,1.35-1.49,1.86c-0.64,0.51-1.41,0.91-2.3,1.2c-0.9,0.28-1.91,0.43-3.01,0.43
		c-1.54,0-2.79-0.25-3.75-0.75c-0.96-0.49-1.71-1.14-2.23-1.95h-1.98v-3.27h3.94c0,0.54,0.12,1.01,0.35,1.4
		c0.23,0.38,0.54,0.69,0.93,0.93c0.38,0.25,0.82,0.43,1.31,0.54c0.49,0.11,0.99,0.17,1.5,0.17c0.49,0,0.97-0.06,1.43-0.18
		c0.46-0.12,0.86-0.3,1.21-0.54c0.35-0.23,0.62-0.51,0.83-0.84c0.2-0.33,0.3-0.71,0.3-1.13c0-0.64-0.21-1.17-0.62-1.61
		c-0.41-0.45-1.12-0.85-2.1-1.2l-3.76-1.41c-1.53-0.55-2.68-1.24-3.42-2.08c-0.74-0.84-1.12-1.89-1.12-3.16
		c0-0.84,0.16-1.61,0.47-2.32c0.31-0.71,0.77-1.32,1.35-1.84c0.59-0.52,1.31-0.92,2.16-1.21c0.84-0.29,1.81-0.44,2.91-0.44
		c1.41,0,2.59,0.2,3.54,0.59c0.95,0.39,1.8,1.06,2.57,2.01h1.85v3.27H838.7z M813.86,284.24c-0.83,0-1.55,0.12-2.16,0.35
		c-0.62,0.23-1.14,0.57-1.57,1c-0.43,0.44-0.78,0.98-1.03,1.61c-0.26,0.64-0.45,1.34-0.57,2.13h10.21
		c-0.06-0.74-0.17-1.42-0.35-2.04c-0.19-0.62-0.47-1.16-0.85-1.62c-0.38-0.46-0.87-0.81-1.46-1.07
		C815.47,284.36,814.73,284.24,813.86,284.24z M822.52,292.09h-14.2c0,0.55,0.04,1.06,0.12,1.53c0.08,0.47,0.2,0.91,0.35,1.32
		c0.47,1.27,1.23,2.22,2.26,2.87c1.03,0.64,2.2,0.96,3.5,0.96c1.03,0,2.03-0.14,3-0.43c0.97-0.29,1.98-0.73,3.05-1.34l1.43,2.41
		c-1.29,0.89-2.6,1.55-3.91,1.98c-1.3,0.43-2.66,0.65-4.07,0.65c-1.33,0-2.57-0.23-3.7-0.67c-1.14-0.44-2.11-1.1-2.93-1.98
		c-0.82-0.88-1.46-1.96-1.92-3.27c-0.47-1.31-0.7-2.83-0.7-4.57c0-1.41,0.2-2.73,0.59-3.99c0.4-1.25,0.98-2.34,1.76-3.27
		c0.78-0.93,1.75-1.66,2.9-2.21c1.15-0.55,2.5-0.82,4.03-0.82c1.48,0,2.72,0.22,3.72,0.67c1,0.45,1.81,1.05,2.43,1.79
		c0.62,0.74,1.1,1.59,1.43,2.54c0.33,0.95,0.55,1.92,0.68,2.91c0.06,0.48,0.1,0.97,0.13,1.46
		C822.51,291.14,822.52,291.62,822.52,292.09z M791.97,301.49v-3.27h2.77v-9c0-1.51-0.38-2.65-1.15-3.43
		c-0.76-0.79-1.86-1.18-3.3-1.18c-0.82,0-1.66,0.2-2.49,0.59c-0.84,0.39-1.63,0.88-2.38,1.46v11.55h2.77v3.27h-9.2v-3.27h2.74
		v-13.16h-2.74v-3.27h6.27v2.32h0.04c0.42-0.37,0.87-0.72,1.34-1.05c0.48-0.32,0.98-0.61,1.5-0.86c0.52-0.24,1.06-0.43,1.63-0.57
		c0.56-0.14,1.15-0.21,1.78-0.21c1.06,0,2,0.15,2.85,0.44c0.85,0.3,1.57,0.74,2.17,1.33c0.59,0.6,1.05,1.36,1.38,2.3
		c0.33,0.93,0.48,2.03,0.48,3.3v9.44h2.73v3.27H791.97z M765.53,284.24c-0.82,0-1.54,0.12-2.16,0.35c-0.61,0.23-1.13,0.57-1.57,1
		c-0.43,0.44-0.78,0.98-1.03,1.61c-0.26,0.64-0.46,1.34-0.59,2.13h10.21c-0.05-0.74-0.17-1.42-0.35-2.04
		c-0.18-0.62-0.47-1.16-0.85-1.62c-0.38-0.46-0.87-0.81-1.47-1.07C767.14,284.36,766.41,284.24,765.53,284.24z M774.18,292.09H760
		c0,0.55,0.04,1.06,0.12,1.53c0.08,0.47,0.2,0.91,0.35,1.32c0.47,1.27,1.22,2.22,2.25,2.87c1.03,0.64,2.21,0.96,3.52,0.96
		c1.02,0,2.02-0.14,2.99-0.43c0.97-0.29,1.99-0.73,3.05-1.34l1.42,2.41c-1.29,0.89-2.59,1.55-3.89,1.98
		c-1.31,0.43-2.67,0.65-4.08,0.65c-1.33,0-2.56-0.23-3.7-0.67c-1.13-0.44-2.11-1.1-2.93-1.98c-0.81-0.88-1.45-1.96-1.92-3.27
		c-0.46-1.31-0.69-2.83-0.69-4.57c0-1.41,0.19-2.73,0.59-3.99c0.39-1.25,0.98-2.34,1.76-3.27c0.78-0.93,1.75-1.66,2.9-2.21
		c1.16-0.55,2.5-0.82,4.04-0.82c1.48,0,2.72,0.22,3.72,0.67c1,0.45,1.81,1.05,2.44,1.79c0.63,0.74,1.1,1.59,1.43,2.54
		c0.32,0.95,0.55,1.92,0.67,2.91c0.06,0.48,0.1,0.97,0.12,1.46C774.17,291.14,774.18,291.62,774.18,292.09z M742.84,285.06v-3.27
		h6.35v16.43h2.19v3.27h-5.75v-1.82c-0.89,0.68-1.85,1.21-2.9,1.6c-1.04,0.38-2.16,0.57-3.36,0.57c-0.98,0-1.88-0.14-2.69-0.43
		c-0.8-0.29-1.49-0.73-2.05-1.33c-0.57-0.6-1-1.37-1.3-2.29c-0.3-0.93-0.46-2.03-0.46-3.31v-9.41h-2.66v-3.27h6.35v12.26
		c0,1.52,0.35,2.66,1.05,3.43c0.7,0.77,1.7,1.16,3,1.16c0.77,0,1.59-0.14,2.45-0.42c0.85-0.28,1.66-0.67,2.43-1.16v-12H742.84z
		 M717.73,298.85c1.07,0,1.99-0.18,2.74-0.54c0.75-0.35,1.34-0.77,1.78-1.25v-11.16c-0.63-0.52-1.35-0.89-2.16-1.12
		c-0.8-0.23-1.63-0.34-2.48-0.34c-0.84,0-1.62,0.16-2.35,0.47c-0.74,0.31-1.38,0.77-1.93,1.37c-0.55,0.6-0.98,1.34-1.3,2.2
		c-0.33,0.86-0.48,1.84-0.48,2.95c0,1.21,0.16,2.29,0.46,3.21c0.31,0.92,0.73,1.7,1.28,2.33c0.55,0.62,1.2,1.1,1.96,1.41
		C716,298.69,716.84,298.85,717.73,298.85z M719.41,310.45v-3.27h2.85v-7.23c-0.63,0.62-1.36,1.11-2.19,1.46
		c-0.82,0.35-1.75,0.52-2.8,0.52c-1.33,0-2.57-0.23-3.71-0.7c-1.15-0.46-2.15-1.14-2.98-2.03c-0.85-0.89-1.51-1.99-1.98-3.3
		c-0.48-1.3-0.72-2.79-0.72-4.46c0-1.52,0.23-2.91,0.69-4.16c0.46-1.25,1.1-2.31,1.94-3.2c0.84-0.88,1.85-1.56,3.02-2.05
		c1.18-0.49,2.49-0.73,3.94-0.73c0.95,0,1.8,0.11,2.56,0.31c0.77,0.21,1.51,0.55,2.23,1.04v-0.88h3.54v25.39h2.97v3.27H719.41z
		 M697.57,274.8c0-0.33,0.07-0.64,0.2-0.94c0.13-0.3,0.31-0.56,0.53-0.78c0.22-0.22,0.48-0.4,0.79-0.54s0.63-0.2,0.97-0.2
		c0.33,0,0.64,0.06,0.94,0.2c0.3,0.13,0.56,0.31,0.78,0.54c0.22,0.22,0.4,0.48,0.53,0.78c0.14,0.3,0.2,0.61,0.2,0.94
		c0,0.34-0.07,0.66-0.2,0.96c-0.13,0.31-0.31,0.58-0.53,0.81c-0.22,0.23-0.48,0.42-0.78,0.55c-0.3,0.13-0.61,0.2-0.94,0.2
		c-0.34,0-0.67-0.07-0.97-0.2c-0.3-0.13-0.57-0.32-0.79-0.55c-0.22-0.23-0.4-0.5-0.53-0.81
		C697.64,275.47,697.57,275.15,697.57,274.8z M695.38,285.06v-3.27h6.43v16.43h2.97v3.27h-9.36v-3.27h2.82v-13.16H695.38z
		 M682.53,301.49v-3.27h2.77v-9c0-1.51-0.38-2.65-1.14-3.43c-0.77-0.79-1.87-1.18-3.3-1.18c-0.82,0-1.66,0.2-2.5,0.59
		c-0.84,0.39-1.63,0.88-2.38,1.46v11.55h2.78v3.27h-9.21v-3.27h2.73v-13.16h-2.73v-3.27h6.28v2.32h0.03
		c0.42-0.37,0.87-0.72,1.34-1.05c0.48-0.32,0.97-0.61,1.49-0.86c0.52-0.24,1.06-0.43,1.63-0.57c0.57-0.14,1.16-0.21,1.78-0.21
		c1.05,0,2,0.15,2.85,0.44c0.85,0.3,1.58,0.74,2.18,1.33c0.59,0.6,1.05,1.36,1.38,2.3c0.32,0.93,0.48,2.03,0.48,3.3v9.44h2.74v3.27
		H682.53z M655.74,285.06v-3.27h6.36v16.43h2.19v3.27h-5.75v-1.82c-0.89,0.68-1.85,1.21-2.9,1.6c-1.04,0.38-2.16,0.57-3.36,0.57
		c-0.98,0-1.88-0.14-2.69-0.43c-0.81-0.29-1.49-0.73-2.06-1.33c-0.57-0.6-1-1.37-1.3-2.29c-0.3-0.93-0.46-2.03-0.46-3.31v-9.41
		h-2.66v-3.27h6.36v12.26c0,1.52,0.35,2.66,1.04,3.43c0.7,0.77,1.7,1.16,3.01,1.16c0.78,0,1.59-0.14,2.44-0.42
		c0.86-0.28,1.67-0.67,2.43-1.16v-12H655.74z M622.35,301.49v-3.27h2.78v-9c0-1.51-0.38-2.65-1.15-3.43
		c-0.77-0.79-1.87-1.18-3.3-1.18c-0.82,0-1.65,0.2-2.48,0.59c-0.84,0.39-1.64,0.88-2.38,1.46v11.55h2.78v3.27h-9.21v-3.27h2.75
		v-13.16h-2.75v-3.27h6.28v2.32h0.04c0.41-0.37,0.86-0.72,1.34-1.05c0.47-0.32,0.97-0.61,1.49-0.86c0.52-0.24,1.06-0.43,1.62-0.57
		c0.57-0.14,1.16-0.21,1.79-0.21c1.05,0,2,0.15,2.85,0.44c0.85,0.3,1.57,0.74,2.17,1.33c0.6,0.6,1.06,1.36,1.38,2.3
		c0.33,0.93,0.48,2.03,0.48,3.3v9.44h2.74v3.27H622.35z M576.66,285.06v-3.27h6.24v3.27h-0.91l3.45,12.57l4.71-15.84h2.96l4.5,15.81
		l3.6-12.54h-1.14v-3.27h6.24v3.27h-1.69l-5.4,16.73h-3.27l-4.47-15.73l-4.45,15.73h-3.31l-5.37-16.73H576.66z M558.36,291.63
		c0,1.13,0.16,2.15,0.49,3.06c0.32,0.91,0.77,1.69,1.33,2.33c0.56,0.64,1.21,1.14,1.95,1.49c0.74,0.35,1.54,0.52,2.37,0.52
		c0.87,0,1.69-0.17,2.45-0.52c0.75-0.34,1.41-0.83,1.96-1.47c0.56-0.64,1-1.41,1.31-2.33c0.32-0.91,0.48-1.94,0.48-3.09
		c0-1.19-0.16-2.25-0.48-3.17c-0.32-0.93-0.75-1.7-1.3-2.32c-0.55-0.62-1.21-1.09-1.97-1.41c-0.77-0.32-1.58-0.48-2.45-0.47
		c-0.84,0-1.63,0.16-2.37,0.47c-0.74,0.32-1.4,0.79-1.95,1.41c-0.57,0.62-1.01,1.39-1.33,2.32
		C558.53,289.39,558.36,290.44,558.36,291.63z M554.62,291.63c0.02-1.56,0.27-2.98,0.76-4.26c0.48-1.28,1.17-2.38,2.04-3.3
		c0.88-0.92,1.92-1.62,3.12-2.12c1.21-0.5,2.53-0.75,3.98-0.75c1.46,0,2.79,0.25,4,0.75c1.21,0.49,2.25,1.19,3.1,2.1
		c0.86,0.91,1.54,2,2.02,3.29c0.48,1.28,0.72,2.7,0.73,4.25c0,1.54-0.24,2.95-0.73,4.24c-0.48,1.28-1.16,2.39-2.02,3.32
		c-0.86,0.92-1.89,1.64-3.1,2.16c-1.21,0.52-2.55,0.77-4,0.77c-1.48,0-2.83-0.25-4.03-0.76c-1.21-0.51-2.24-1.22-3.1-2.14
		c-0.86-0.92-1.53-2.02-2.01-3.3C554.88,294.6,554.63,293.18,554.62,291.63z M532.55,285.06v-3.27h6.36v16.43h2.19v3.27h-5.75v-1.82
		c-0.89,0.68-1.86,1.21-2.9,1.6c-1.04,0.38-2.16,0.57-3.36,0.57c-0.98,0-1.88-0.14-2.69-0.43c-0.8-0.29-1.49-0.73-2.05-1.33
		c-0.57-0.6-1-1.37-1.3-2.29c-0.31-0.93-0.46-2.03-0.46-3.31v-9.41h-2.66v-3.27h6.36v12.26c0,1.52,0.35,2.66,1.04,3.43
		c0.7,0.77,1.7,1.16,3.01,1.16c0.77,0,1.59-0.14,2.44-0.42c0.86-0.28,1.67-0.67,2.43-1.16v-12H532.55z M500.87,291.63
		c0,1.13,0.16,2.15,0.48,3.06c0.33,0.91,0.77,1.69,1.34,2.33c0.57,0.64,1.22,1.14,1.96,1.49c0.74,0.35,1.53,0.52,2.37,0.52
		c0.88,0,1.69-0.17,2.44-0.52c0.76-0.34,1.42-0.83,1.97-1.47c0.56-0.64,0.99-1.41,1.31-2.33c0.32-0.91,0.48-1.94,0.48-3.09
		c0-1.19-0.16-2.25-0.48-3.17c-0.32-0.93-0.75-1.7-1.31-2.32c-0.55-0.62-1.2-1.09-1.96-1.41c-0.76-0.32-1.58-0.48-2.45-0.47
		c-0.84,0-1.63,0.16-2.37,0.47c-0.74,0.32-1.4,0.79-1.96,1.41c-0.56,0.62-1.01,1.39-1.34,2.32
		C501.03,289.39,500.87,290.44,500.87,291.63z M497.12,291.63c0.02-1.56,0.27-2.98,0.75-4.26c0.49-1.28,1.17-2.38,2.04-3.3
		c0.87-0.92,1.91-1.62,3.12-2.12c1.2-0.5,2.53-0.75,3.98-0.75c1.45,0,2.79,0.25,4.01,0.75c1.21,0.49,2.25,1.19,3.11,2.1
		c0.86,0.91,1.53,2,2.01,3.29c0.48,1.28,0.72,2.7,0.72,4.25c0,1.54-0.24,2.95-0.72,4.24c-0.48,1.28-1.15,2.39-2.01,3.32
		c-0.86,0.92-1.9,1.64-3.11,2.16c-1.22,0.52-2.55,0.77-4.01,0.77c-1.48,0-2.83-0.25-4.04-0.76c-1.2-0.51-2.24-1.22-3.1-2.14
		c-0.86-0.92-1.54-2.02-2.02-3.3C497.38,294.6,497.14,293.18,497.12,291.63z M473.71,285.06v-3.27h7.47v3.27h-2.34l4.62,12.57
		l4.83-12.57h-2.32v-3.27h7.48v3.27h-2.03l-8.77,22.12h2.7v3.27h-7.95v-3.27h2.4l2.1-5.42l-6.58-16.7H473.71z M453.03,284.24
		c-0.82,0-1.55,0.12-2.16,0.35c-0.62,0.23-1.14,0.57-1.57,1c-0.43,0.44-0.78,0.98-1.04,1.61c-0.26,0.64-0.45,1.34-0.57,2.13h10.21
		c-0.05-0.74-0.17-1.42-0.35-2.04c-0.19-0.62-0.47-1.16-0.85-1.62c-0.38-0.46-0.87-0.81-1.46-1.07
		C454.64,284.36,453.91,284.24,453.03,284.24L453.03,284.24z M461.69,292.09h-14.2c0,0.55,0.04,1.06,0.12,1.53
		c0.08,0.47,0.2,0.91,0.35,1.32c0.47,1.27,1.23,2.22,2.26,2.87c1.03,0.64,2.2,0.96,3.5,0.96c1.03,0,2.03-0.14,3-0.43
		c0.97-0.29,1.99-0.73,3.05-1.34l1.43,2.41c-1.29,0.89-2.6,1.55-3.91,1.98c-1.3,0.43-2.66,0.65-4.06,0.65
		c-1.34,0-2.57-0.23-3.7-0.67c-1.14-0.44-2.11-1.1-2.93-1.98c-0.82-0.88-1.46-1.96-1.92-3.27c-0.46-1.31-0.7-2.83-0.7-4.57
		c0-1.41,0.2-2.73,0.59-3.99c0.39-1.25,0.98-2.34,1.76-3.27c0.78-0.93,1.75-1.66,2.9-2.21c1.15-0.55,2.5-0.82,4.04-0.82
		c1.48,0,2.72,0.22,3.71,0.67c1,0.45,1.81,1.05,2.43,1.79c0.63,0.74,1.11,1.59,1.44,2.54c0.32,0.95,0.54,1.92,0.67,2.91
		c0.06,0.48,0.11,0.97,0.12,1.46C461.68,291.14,461.7,291.62,461.69,292.09z M435.37,275.43v6.36h4.62v2.87h-4.66l-0.06,11.38
		c0,0.77,0.09,1.4,0.27,1.89c0.18,0.48,0.46,0.81,0.86,1c0.39,0.18,0.83,0.28,1.33,0.28c0.53,0,1-0.05,1.41-0.15
		c0.4-0.09,0.85-0.26,1.33-0.48l0.82,2.38c-0.61,0.32-1.25,0.57-1.91,0.76c-0.68,0.18-1.47,0.27-2.39,0.27
		c-0.86,0-1.61-0.11-2.25-0.31c-0.64-0.21-1.18-0.57-1.61-1.06c-0.44-0.49-0.77-1.15-0.98-1.98c-0.22-0.83-0.33-1.87-0.33-3.11
		l0.06-10.84h-3.14v-2.87h3.17v-4.72L435.37,275.43z M415.15,299.07c0.47,0,0.93-0.05,1.4-0.17c0.47-0.12,0.91-0.27,1.33-0.47
		c0.42-0.2,0.8-0.43,1.16-0.68c0.35-0.26,0.65-0.53,0.89-0.8l0.02-4.46h-4.11c-0.69,0-1.31,0.08-1.88,0.23
		c-0.56,0.15-1.05,0.38-1.46,0.66c-0.41,0.29-0.73,0.65-0.96,1.08c-0.23,0.43-0.34,0.93-0.34,1.49c0,0.52,0.09,0.97,0.29,1.36
		c0.19,0.39,0.46,0.71,0.81,0.97c0.35,0.26,0.76,0.46,1.25,0.59C414.03,299.01,414.57,299.07,415.15,299.07z M419.94,301.49v-1.82
		c-0.75,0.7-1.57,1.27-2.48,1.71c-0.91,0.45-1.93,0.67-3.09,0.67c-0.96,0-1.85-0.16-2.66-0.46c-0.8-0.3-1.5-0.71-2.08-1.25
		c-0.59-0.52-1.04-1.13-1.36-1.83s-0.48-1.44-0.48-2.23c0-0.84,0.12-1.58,0.37-2.23c0.25-0.64,0.58-1.2,0.99-1.68
		c0.41-0.47,0.9-0.87,1.45-1.19c0.55-0.33,1.13-0.59,1.73-0.79c0.6-0.19,1.22-0.33,1.85-0.41c0.62-0.08,1.23-0.12,1.8-0.12
		c0.91,0,1.68,0.03,2.3,0.09c0.62,0.05,1.19,0.14,1.69,0.23l0.02-1.61c0-0.7-0.1-1.3-0.31-1.82c-0.2-0.51-0.48-0.94-0.86-1.28
		c-0.37-0.34-0.81-0.59-1.32-0.75c-0.51-0.16-1.09-0.25-1.72-0.25c-0.59,0-1.17,0.04-1.71,0.12c-0.55,0.08-1.05,0.19-1.53,0.32
		c-0.48,0.14-0.91,0.29-1.31,0.46c-0.39,0.17-0.73,0.35-1.02,0.54l-1.16-2.45c0.47-0.3,0.98-0.59,1.54-0.85
		c0.56-0.26,1.14-0.48,1.76-0.67c0.61-0.18,1.24-0.33,1.88-0.44c0.64-0.1,1.27-0.16,1.89-0.15c1.14,0,2.17,0.13,3.09,0.4
		c0.91,0.27,1.68,0.7,2.31,1.26c0.64,0.57,1.12,1.3,1.46,2.18c0.34,0.88,0.51,1.94,0.52,3.16l-0.02,9.86h2.19v3.27H419.94z
		 M394.9,284.24c-0.83,0-1.55,0.12-2.17,0.35c-0.61,0.23-1.13,0.57-1.57,1c-0.43,0.44-0.78,0.98-1.04,1.61
		c-0.26,0.64-0.46,1.34-0.59,2.13h10.22c-0.05-0.74-0.17-1.42-0.36-2.04c-0.18-0.62-0.46-1.16-0.84-1.62
		c-0.39-0.46-0.88-0.81-1.46-1.07C396.5,284.36,395.77,284.24,394.9,284.24z M403.54,292.09h-14.18c0,0.55,0.04,1.06,0.12,1.53
		c0.08,0.47,0.2,0.91,0.35,1.32c0.47,1.27,1.22,2.22,2.25,2.87c1.04,0.64,2.21,0.96,3.52,0.96c1.03,0,2.02-0.14,2.99-0.43
		c0.97-0.29,1.99-0.73,3.05-1.34l1.43,2.41c-1.29,0.89-2.59,1.55-3.89,1.98c-1.31,0.43-2.67,0.65-4.08,0.65
		c-1.33,0-2.56-0.23-3.69-0.67c-1.14-0.44-2.11-1.1-2.93-1.98c-0.82-0.88-1.46-1.96-1.93-3.27c-0.46-1.31-0.69-2.83-0.69-4.57
		c0-1.41,0.2-2.73,0.59-3.99c0.39-1.25,0.97-2.34,1.75-3.27c0.79-0.93,1.75-1.66,2.9-2.21c1.15-0.55,2.5-0.82,4.03-0.82
		c1.48,0,2.73,0.22,3.73,0.67c0.99,0.45,1.8,1.05,2.43,1.79c0.63,0.74,1.11,1.59,1.43,2.54c0.32,0.95,0.55,1.92,0.68,2.91
		c0.06,0.48,0.11,0.97,0.12,1.46C403.53,291.14,403.54,291.62,403.54,292.09z M381.92,281.67v4.28h-3.61v-1.21
		c-0.42,0-0.85,0.08-1.29,0.24c-0.44,0.16-0.85,0.39-1.23,0.71c-0.38,0.33-0.71,0.74-1,1.24c-0.29,0.5-0.49,1.1-0.62,1.77v9.52h3.35
		v3.27h-9.78v-3.27h2.72l0.02-13.16h-2.73v-3.27h6.29v2.72c0.23-0.41,0.48-0.78,0.77-1.13c0.29-0.35,0.6-0.66,0.95-0.92
		c0.35-0.26,0.73-0.46,1.16-0.61c0.42-0.14,0.88-0.22,1.38-0.22c0.66,0,1.28,0,1.86,0S381.34,281.64,381.92,281.67z M364.29,287.04
		h-3.58c-0.53-0.96-1.21-1.65-2.03-2.1c-0.81-0.44-1.76-0.66-2.84-0.66c-0.82,0-1.59,0.17-2.32,0.51c-0.72,0.34-1.35,0.83-1.89,1.46
		c-0.54,0.64-0.96,1.41-1.28,2.31c-0.31,0.91-0.47,1.92-0.46,3.03c0,1.11,0.16,2.11,0.46,2.99c0.31,0.89,0.74,1.65,1.29,2.27
		c0.55,0.62,1.18,1.11,1.9,1.44c0.71,0.34,1.48,0.51,2.3,0.51c1.22,0,2.28-0.3,3.18-0.89c0.9-0.59,1.62-1.45,2.15-2.59l2.93,1.45
		c-0.38,0.81-0.85,1.54-1.41,2.18c-0.56,0.65-1.19,1.2-1.89,1.66c-0.7,0.46-1.47,0.81-2.32,1.05c-0.84,0.25-1.73,0.37-2.68,0.38
		c-1.36,0-2.63-0.26-3.79-0.77c-1.16-0.51-2.16-1.23-3-2.16c-0.85-0.92-1.5-2.03-1.97-3.31c-0.47-1.29-0.7-2.69-0.7-4.21
		c0-1.52,0.25-2.92,0.74-4.2c0.49-1.28,1.17-2.38,2.03-3.3c0.86-0.92,1.87-1.64,3.03-2.16c1.15-0.52,2.39-0.78,3.71-0.78
		c1.25,0,2.42,0.21,3.53,0.64c1.11,0.43,2.09,1.09,2.92,1.96h2V287.04z"/>
	<g class="st1">
		<defs>
			<rect id="SVGID_1_" x="75.01" y="130.18" width="842.19" height="122.82"/>
		</defs>
		<clipPath id="SVGID_2_" class="st2">
			<use xlink:href="#SVGID_1_"  style="overflow:visible;"/>
		</clipPath>
		<path class="st3" d="M906.85,179.9c0-11.42-4.27-17.12-12.81-17.12c-4.27,0-7.92,2.32-10.95,6.96c-3.01,4.64-4.6,10.54-4.79,17.68
			h27.99C906.67,184.26,906.85,181.75,906.85,179.9z M895.72,159.43c6.41,0,11.46,2.14,15.18,6.41c3.71,4.27,5.57,10.54,5.57,18.8
			c0,1.67-0.09,3.53-0.28,5.57h-38.02v0.98c0,8.82,1.6,15.75,4.79,20.8c3.21,5.07,7.34,7.6,12.39,7.6c5.07,0,9.23-1.3,12.48-3.9
			c3.25-2.6,5.48-6.31,6.69-11.14l2.64,0.56c-1.11,5.66-3.67,10.05-7.66,13.17c-3.99,3.1-8.59,4.65-13.78,4.65
			c-8.07,0-14.79-2.83-20.14-8.5c-5.33-5.66-7.99-13.39-7.99-23.2c0-9.78,2.69-17.53,8.08-23.25
			C881.05,162.28,887.73,159.43,895.72,159.43z M839.32,216.8v-81.32c0-1.3-0.65-1.95-1.95-1.95h-6.54v-2.5h6.82
			c5.57,0,9.47-0.28,11.7-0.84v86.61c0,1.3,0.65,1.95,1.95,1.95h6.55v2.51h-27.02v-2.51h6.54
			C838.67,218.75,839.32,218.1,839.32,216.8z M810.35,163.6v-2.5h17.68v2.5h-5.15c-0.84,0-1.49,0.65-1.95,1.95l-24.09,64.47
			c-0.28,0.84-0.74,2.09-1.4,3.76l-1.53,3.76c-0.28,0.84-0.7,1.98-1.25,3.43c-0.56,1.43-1.02,2.54-1.39,3.34
			c-0.37,0.78-0.84,1.73-1.39,2.84c-0.65,1.4-1.58,2.72-2.78,3.99c-1.2,1.24-2.46,1.87-3.76,1.87c-1.3,0-2.66-0.81-4.09-2.43
			c-1.45-1.63-2.31-3.38-2.59-5.23c8.45-3.62,14.2-9.66,17.27-18.1l2.37-6.41l-20.61-55.28c-0.46-1.3-1.11-1.95-1.95-1.95h-5.15
			v-2.5h23.67v2.5h-6.96l16.02,44l16.15-44H810.35z M751.17,146.34h2.09v14.76h13.93v2.5h-13.93v47.21c0,5.01,1.39,7.52,4.18,7.52
			c1.3,0,2.44-0.6,3.42-1.81c0.97-1.21,1.45-2.6,1.45-4.18s-0.14-3.06-0.42-4.45l2.64-0.42c0.38,1.39,0.56,2.92,0.56,4.59
			c0,3.34-0.99,5.99-2.98,7.94c-2,1.95-4.63,2.93-7.88,2.93c-3.25,0-5.89-1.33-7.93-3.99c-2.04-2.64-3.07-6.6-3.07-11.89v-41.5
			c0-1.3-0.65-1.95-1.95-1.95h-6.54v-2.5h6.82C744.53,161.1,747.74,156.18,751.17,146.34z M697.31,222.93
			c-6.12,0-12.25-1.67-18.38-5.02c-2.04-1.02-3.43-1.53-4.18-1.53c-1.39,0-2.13,0.98-2.23,2.93l-0.14,1.95h-2.65V198h2.51
			c0.84,7.15,3.5,12.41,7.99,15.79c4.51,3.4,9.85,5.1,16.02,5.1c6.18,0,10.87-1.67,14.06-5.02c3.21-3.34,4.82-7.29,4.82-11.84
			c0-7.24-4.18-12.71-12.53-16.43l-16.57-7.38c-5.01-2.23-8.77-5.27-11.28-9.14c-2.5-3.84-3.76-7.99-3.76-12.45
			c0-6.78,2.27-12.61,6.82-17.49c4.55-4.87,11.09-7.3,19.63-7.3c5.01,0,10.16,1.67,15.46,5.01c1.77,1.02,2.97,1.53,3.62,1.53
			c1.21,0,1.86-0.97,1.95-2.92l0.14-2.79h2.65v24.09h-2.51c-0.74-7.15-3.04-12.42-6.91-15.82c-3.84-3.38-8.53-5.07-14.06-5.07
			c-5.51,0-9.78,1.5-12.81,4.51c-3.01,3.03-4.51,6.46-4.51,10.3c0,3.86,1.04,7.33,3.12,10.39c2.1,3.06,5.19,5.48,9.27,7.24
			l16.71,7.38c5.57,2.51,9.77,5.77,12.59,9.8c2.84,4.05,4.26,8.39,4.26,13.03c0,6.59-2.64,12.3-7.94,17.13
			C713.18,220.51,706.13,222.93,697.31,222.93z M609.11,220.61c-1.54-1.52-2.31-3.35-2.31-5.49c0-2.13,0.77-3.96,2.31-5.48
			c1.52-1.54,3.35-2.31,5.48-2.31c2.14,0,3.98,0.77,5.52,2.31c1.52,1.52,2.29,3.35,2.29,5.48c0,2.14-0.76,3.96-2.29,5.49
			c-1.54,1.54-3.38,2.31-5.52,2.31C612.46,222.93,610.63,222.15,609.11,220.61z M585.77,221.25h-42.61v-2.51h6.54
			c1.3,0,1.95-0.65,1.95-1.95V137.7c0-1.11-0.65-1.67-1.95-1.67h-6.54v-2.51h28.41v2.51h-6.54c-1.3,0-1.95,0.56-1.95,1.67v79.65
			h27.71c2.41,0,3.71-1.02,3.9-3.07l2.09-16.29h3.2v6.54c0,8.17,0.42,14.16,1.25,17.96C598.26,221.67,593.1,221.25,585.77,221.25z
			 M509.07,187.97l-13.79-38.02l-13.93,38.02H509.07z M539.71,218.75v2.51h-28.55v-2.51h9.05l-9.75-26.88h-30.64l-9.75,26.88h9.05
			v2.51h-21.03v-2.51h5.15c1.3,0,2.18-0.65,2.64-1.95l30.64-83.27h4.73l30.63,83.27c0.46,1.3,1.35,1.95,2.65,1.95H539.71z
			 M438.47,221.25h-46.09v-2.51h6.54c1.3,0,1.95-0.65,1.95-1.95V137.7c0-1.11-0.65-1.67-1.95-1.67h-6.54v-2.51h44.14
			c7.34,0,12.49-0.42,15.46-1.25c-0.84,3.8-1.25,9.1-1.25,15.87v6.54h-3.2l-2.09-14.2c-0.19-2.04-1.48-3.06-3.9-3.06h-29.24v38.01
			h27.99c1.11,0,1.76-0.65,1.95-1.95l0.7-8.63h2.51v25.07h-2.51l-0.7-8.63c-0.19-1.3-0.84-1.95-1.95-1.95h-27.99v38.01h31.19
			c2.41,0,3.71-1.02,3.9-3.07l2.09-16.29h3.2v6.54c0,8.17,0.42,14.16,1.25,17.96C450.96,221.67,445.8,221.25,438.47,221.25z
			 M352.55,137.43h-14.07v39.26h14.07c5.57,0,9.91-1.95,13.03-5.85c3.1-3.9,4.65-8.49,4.65-13.78s-1.55-9.89-4.65-13.79
			C362.47,139.38,358.12,137.43,352.55,137.43z M380.96,218.33c1.39,0,2.54-0.59,3.43-1.75c0.87-1.15,1.31-2.54,1.31-4.18
			c0-1.62-0.14-3.12-0.42-4.51l2.64-0.42c0.37,1.39,0.56,2.92,0.56,4.59c0,3.34-1,5.99-2.98,7.94c-2,1.95-4.59,2.93-7.74,2.93
			c-7.89,0-11.84-4.78-11.84-14.34c0-9.56-1.21-16.6-3.62-21.11c-2.41-4.5-7.34-6.74-14.76-6.74h-9.05v36.07
			c0,1.3,0.65,1.95,1.95,1.95h9.33v2.51h-31.2v-2.51h6.55c1.3,0,1.95-0.65,1.95-1.95V137.7c0-1.11-0.65-1.67-1.95-1.67h-6.55v-2.51
			h34.68c7.8,0,14.43,2.14,19.91,6.41c5.48,4.27,8.22,9.98,8.22,17.13c0,5.75-1.79,10.61-5.35,14.57c-3.59,3.93-8.3,6.65-14.15,8.13
			c6.59,2.23,10.77,6.22,12.53,11.97c1.39,4.74,2.09,10.35,2.09,16.85C376.5,215.08,377.99,218.33,380.96,218.33z M262.35,179.9
			c0-11.42-4.27-17.12-12.81-17.12c-4.27,0-7.92,2.32-10.95,6.96c-3.01,4.64-4.61,10.54-4.79,17.68h27.99
			C262.16,184.26,262.35,181.75,262.35,179.9z M251.21,159.43c6.41,0,11.46,2.14,15.18,6.41c3.71,4.27,5.57,10.54,5.57,18.8
			c0,1.67-0.1,3.53-0.3,5.57h-37.99v0.98c0,8.82,1.6,15.75,4.79,20.8c3.21,5.07,7.34,7.6,12.39,7.6s9.2-1.3,12.45-3.9
			c3.25-2.6,5.49-6.31,6.71-11.14l2.65,0.56c-1.13,5.66-3.69,10.05-7.66,13.17c-3.99,3.1-8.59,4.65-13.79,4.65
			c-8.08,0-14.79-2.83-20.14-8.5c-5.33-5.66-7.99-13.39-7.99-23.2c0-9.78,2.69-17.53,8.07-23.25
			C236.54,162.28,243.22,159.43,251.21,159.43z M204.84,180.59v36.48c0,1.12,0.65,1.67,1.95,1.67h6.54v2.51h-25.06v-2.51h4.59
			c1.3,0,1.95-0.56,1.95-1.67v-38.29c0-4.73-1.05-8.24-3.15-10.53c-2.08-2.27-4.84-3.4-8.27-3.4c-4.83,0-8.82,2.85-11.98,8.55
			c-3.16,5.72-4.73,13.92-4.73,24.59v18.8c0,1.3,0.65,1.95,1.95,1.95h4.6v2.51h-25.07v-2.51h6.54c1.3,0,1.95-0.56,1.95-1.67v-81.6
			c0-1.3-0.65-1.95-1.95-1.95h-6.54v-2.5h6.82c5.57,0,9.47-0.28,11.7-0.84v49.02c3.16-13.18,10.12-19.77,20.89-19.77
			c4.83,0,8.91,1.73,12.26,5.21C203.16,168.12,204.84,173.45,204.84,180.59z M132.84,137.43h-17.96v79.65
			c0,1.12,0.65,1.67,1.95,1.67h12.12v2.51H89.39v-2.51h12.12c1.3,0,1.95-0.56,1.95-1.67v-79.65H85.5c-2.41,0-3.71,1.02-3.9,3.06
			l-2.09,16.29h-3.2v-6.55c0-8.17-0.42-14.16-1.25-17.96c2.97,0.83,8.12,1.25,15.46,1.25h37.32c7.34,0,12.49-0.42,15.46-1.25
			c-0.84,3.8-1.25,9.79-1.25,17.96v6.55h-3.2l-2.09-16.29C136.55,138.45,135.26,137.43,132.84,137.43z"/>
	</g>
	<g id="Layer_3">
		<rect x="651.15" y="58.51" class="st4" width="288.77" height="183.06"/>
	</g>
	<text transform="matrix(1 0 0 1 651.1487 169.2883)"><tspan x="0" y="0" class="st5 st6 st7"> </tspan><tspan x="16.32" y="0" class="st5 st8 st7">Style</tspan></text>
	<text transform="matrix(1 0 0 1 53.0118 195.5744)" class="st0 st9 st10">The REAL.</text>
</g>
<g id="Layer_2" class="st1">
	<path class="st11" d="M301.49,337.02c-94.15-0.41-188.3-0.83-282.45-1.24V17.22H978.3c-0.23,106.3-0.45,212.6-0.68,318.89
		c-41.75,0-83.5,0-125.25,0"/>
</g>
</svg>
