<?xml version="1.0" encoding="utf-8"?>
<!-- Generator: Adobe Illustrator 24.3.0, SVG Export Plug-In . SVG Version: 6.00 Build 0)  -->
<svg version="1.1" xmlns="http://www.w3.org/2000/svg" xmlns:xlink="http://www.w3.org/1999/xlink" x="0px" y="0px"
	 viewBox="0 0 112.4 110.15" style="enable-background:new 0 0 112.4 110.15;" xml:space="preserve">
<style type="text/css">
	.st0{fill:#EC6323;}
	.st1{fill:none;stroke:#000000;stroke-miterlimit:10;}
</style>
<g id="Layer_1">
	<ellipse class="st0" cx="44.38" cy="56" rx="34.5" ry="33.59"/>
</g>
<g id="Layer_4">
	<line class="st1" x1="41.58" y1="76.59" x2="99.32" y2="76.59"/>
</g>
<g id="Layer_3">
	<path d="M45.96,68.42c0,0-7.97,3.04-7.32,7.42c0.65,4.37,3.64,2.28,3.64,2.28s4.34-6.85,26.97-19.02h0.9v-8.18
		c0,0-5.14,0.95-9.21,6.66S45.96,68.42,45.96,68.42z"/>
	<path d="M94.35,68.42c0,0,7.97,3.04,7.32,7.42c-0.65,4.37-3.64,2.28-3.64,2.28s-4.34-6.85-26.97-19.02h-0.9v-8.18
		c0,0,5.14,0.95,9.21,6.66S94.35,68.42,94.35,68.42z"/>
	<path class="st1" d="M63.99,42.41c0.43,0.15,0.86,0.31,1.29,0.46c1.72-2.37,4.54-2.8,5.96-1.7c1.2,0.94,1.31,2.94,0.85,4.34
		c-0.48,1.44-1.55,2.2-1.92,2.43C70.11,48.96,70.05,49.98,70,51"/>
</g>
</svg>
